<svg width="94" height="87" viewBox="0 0 94 87" fill="none" xmlns="http://www.w3.org/2000/svg">
<rect width="94" height="87" rx="10" fill="#3A3128"/>
<path d="M75.25 24.8125H37.875C34.7125 24.8125 32.125 27.4 32.125 30.5625V56.4375C32.125 57.9625 32.7308 59.425 33.8091 60.5034C34.8875 61.5817 36.35 62.1875 37.875 62.1875H75.25C78.4412 62.1875 81 59.6287 81 56.4375V30.5625C81 29.0375 80.3942 27.575 79.3159 26.4966C78.2375 25.4183 76.775 24.8125 75.25 24.8125ZM75.25 35.3638L56.5625 44.9375L37.875 35.3638V30.5625L56.5625 40.0788L75.25 30.5625V35.3638ZM26.375 56.4375C26.375 56.9262 26.4612 57.3863 26.5187 57.875H14.875C13.288 57.875 12 56.5813 12 55C12 53.4188 13.288 52.125 14.875 52.125H26.375V56.4375ZM20.625 29.125H26.5187C26.4612 29.6138 26.375 30.0738 26.375 30.5625V34.875H20.625C19.0437 34.875 17.75 33.5813 17.75 32C17.75 30.4187 19.0437 29.125 20.625 29.125ZM14.875 43.5C14.875 41.9188 16.1687 40.625 17.75 40.625H26.375V46.375H17.75C16.1687 46.375 14.875 45.0813 14.875 43.5Z" fill="#FCDFC2"/>
</svg>
