<svg width="164" height="191" viewBox="0 0 164 191" fill="none" xmlns="http://www.w3.org/2000/svg">
<path d="M148.65 100.41C168.095 90.3462 167.204 94.4081 147.822 84.3886C128.439 74.3691 71.8587 49.0837 71.8587 49.0837C65.6212 46.187 59.3172 52.7272 61.4167 59.9099L4.60278 90.3466L101.262 88.7604C102.643 88.7205 103.99 89.29 105.013 90.3464C106.036 91.4027 106.654 92.8614 106.734 94.4081C106.814 95.9549 106.348 97.466 105.438 98.6161C104.528 99.7661 103.247 100.463 101.869 100.557L4.60278 100.557L65.1857 133.119C63.8298 140.465 70.777 146.359 76.6828 142.878C76.6828 142.878 129.204 110.474 148.65 100.41Z" fill="white"/>
<path d="M126.6 95.2C126.6 87.6 125.733 80 124 72.4C122.4 64.8 119.733 57.8667 116 51.6C112.267 45.3333 107.333 40.3333 101.2 36.6C95.0667 32.7333 87.5333 30.8 78.6 30.8C69.5333 30.8 60.6 31 51.8 31.4V153.8C51.8 157.267 52.3333 159.733 53.4 161.2C54.4667 162.667 56.8667 163.4 60.6 163.4C65.1333 163.4 69.8667 163.2 74.8 162.8C79.8667 162.4 84.7333 161.533 89.4 160.2C94.2 158.733 98.4 156.6 102 153.8C110.667 146.733 116.933 137.933 120.8 127.4C124.667 116.867 126.6 106.133 126.6 95.2ZM155.6 92.4C155.6 100.933 154.333 109.333 151.8 117.6C149.267 125.867 145.533 133.533 140.6 140.6C135.8 147.533 129.8 153.4 122.6 158.2C117.933 161.267 112.467 163.8 106.2 165.8C99.9333 167.667 93.5333 169 87 169.8C80.6 170.6 74.6 171 69 171C64.3333 171 59.6667 170.8 55 170.4C50.4667 170.133 45.8667 170 41.2 170C37.8667 170 34.4667 170 31 170C27.6667 170.133 24.2667 170.333 20.8 170.6C19.4667 170.733 18.2 170.8 17 170.8C15.8 170.933 14.6 171 13.4 171C11 171 9.8 169.933 9.8 167.8C9.8 166.467 10.4 165.6 11.6 165.2C12.8 164.8 14.1333 164.533 15.6 164.4C17.0667 164.133 18.2 163.867 19 163.6C21.2667 162.533 22.7333 160.867 23.4 158.6C24.0667 156.333 24.4 154.133 24.4 152C24.4 139.867 24.4 127.8 24.4 115.8C24.4 103.8 24.4 91.8 24.4 79.8C24.4 72.8667 24.4 66 24.4 59.2C24.5333 52.2667 24.4 45.4 24 38.6C24 38.3333 23.9333 37.8 23.8 37C23.8 36.0667 23.8 35.5333 23.8 35.4C23.4 33.8 22.3333 32.7333 20.6 32.2C18.8667 31.6667 17 31.4667 15 31.6C13 31.6 11.3333 31.6 10 31.6C8.93333 31.6 7.93333 31.4 7 31C6.06667 30.4667 5.6 29.5333 5.6 28.2C5.6 25.6667 6.86667 24.4 9.4 24.4C12.7333 24.4 16 24.5333 19.2 24.8C22.5333 24.9333 25.8667 25 29.2 25C38.6667 25 48.1333 24.6667 57.6 24C67.2 23.2 76.7333 22.8 86.2 22.8C100.6 22.8 113 25.6 123.4 31.2C133.8 36.8 141.733 44.8 147.2 55.2C152.8 65.6 155.6 78 155.6 92.4Z" fill="white"/>
</svg>
